<svg xmlns="http://www.w3.org/2000/svg" viewBox="0 0 30 30">
  <title>Reseau-instagram</title>
  <g>
    <path d="M14.82,11.62a2.73,2.73,0,1,0,2.73,2.73A2.74,2.74,0,0,0,14.82,11.62Z" fill="#13110c" fill-rule="evenodd"/>
    <path d="M14.92.35A14.17,14.17,0,1,0,29.09,14.52,14.16,14.16,0,0,0,14.92.35Zm8,17.38a6,6,0,0,1-.38,2,4.17,4.17,0,0,1-2.4,2.4,5.85,5.85,0,0,1-2,.38c-.87,0-1.15.05-3.38.05s-2.51,0-3.38-.05a5.91,5.91,0,0,1-2-.38A4.2,4.2,0,0,1,8,21.18a4.14,4.14,0,0,1-.94-1.46,5.77,5.77,0,0,1-.39-2c0-.87,0-1.15,0-3.38s0-2.51,0-3.38a5.77,5.77,0,0,1,.39-2A4.14,4.14,0,0,1,8,7.52a4.2,4.2,0,0,1,1.45-.94,5.91,5.91,0,0,1,2-.38c.87,0,1.15,0,3.38,0s2.51,0,3.38,0a5.85,5.85,0,0,1,2,.38A4.17,4.17,0,0,1,22.59,9,6,6,0,0,1,23,11c0,.87.05,1.15.05,3.38S23,16.86,23,17.73Z" fill="#13110c" fill-rule="evenodd"/>
    <path d="M21.21,9.51a2.55,2.55,0,0,0-.61-.94A2.43,2.43,0,0,0,19.66,8a4.44,4.44,0,0,0-1.53-.29c-.86,0-1.12,0-3.31,0s-2.45,0-3.32,0A4.37,4.37,0,0,0,10,8,2.36,2.36,0,0,0,9,8.57a2.57,2.57,0,0,0-.62.94A4.77,4.77,0,0,0,8.14,11c0,.86-.05,1.12-.05,3.31s0,2.45.05,3.32a4.76,4.76,0,0,0,.28,1.52,2.57,2.57,0,0,0,.62.94,2.49,2.49,0,0,0,.94.62A4.69,4.69,0,0,0,11.5,21c.87,0,1.13,0,3.32,0s2.45,0,3.31,0a4.77,4.77,0,0,0,1.53-.28,2.75,2.75,0,0,0,1.55-1.56,4.42,4.42,0,0,0,.29-1.52c0-.87,0-1.13,0-3.32s0-2.45,0-3.31A4.44,4.44,0,0,0,21.21,9.51Zm-6.39,9A4.21,4.21,0,1,1,19,14.35,4.2,4.2,0,0,1,14.82,18.56ZM19.2,11a1,1,0,1,1,1-1A1,1,0,0,1,19.2,11Z" fill="#13110c" fill-rule="evenodd"/>
  </g>
</svg>
