<svg xmlns="http://www.w3.org/2000/svg" viewBox="0 0 30 30">
  <title>Reseau-youtube</title>
  <g>
    <polygon points="12.73 11.86 12.73 17.24 17.9 14.56 12.73 11.86" fill="#13110c"/>
    <path d="M14.69.62A14.18,14.18,0,1,0,28.86,14.79,14.17,14.17,0,0,0,14.69.62Zm8.53,14.75a25.19,25.19,0,0,1-.17,2.73,3.72,3.72,0,0,1-.67,1.68,2.41,2.41,0,0,1-1.69.71c-2.37.18-5.91.18-5.91.18s-4.39,0-5.74-.17a2.89,2.89,0,0,1-1.87-.72A3.72,3.72,0,0,1,6.5,18.1a25.19,25.19,0,0,1-.17-2.73V14.09a25.19,25.19,0,0,1,.17-2.73,3.72,3.72,0,0,1,.67-1.68A2.45,2.45,0,0,1,8.87,9c2.36-.17,5.9-.17,5.9-.17h0s3.54,0,5.91.17a2.41,2.41,0,0,1,1.69.71,3.72,3.72,0,0,1,.67,1.68,25.19,25.19,0,0,1,.17,2.73Z" fill="#13110c"/>
  </g>
</svg>
